# xmcd CD database file
#
# Track frame offsets:
#	150
#	32126
#	76521
#	99709
#	140312
#	163812
#
# Disc length: 2641 seconds
#
# Revision: 0
# Processed by: cddbd v1.5.2PL0 Copyright (c) Steve Scherf et al.
# Submitted via: CDex 1.51
#
DISCID=410a4f06
DTITLE=Sachin Limaye - Gopala
DYEAR=2005
DGENRE=Bhajan
TTITLE0=Narayana
TTITLE1=Muralimanohara
TTITLE2=Govinda Govinda Gopala
TTITLE3=Ram Krishna Hari
TTITLE4=Mohana Muralidhara
TTITLE5=Krishna Gopala
EXTD=YEAR: 2005
EXTT0=
EXTT1=
EXTT2=
EXTT3=
EXTT4=
EXTT5=
PLAYORDER=
